<svg width="500" height="500" viewBox="0 0 500 500" fill="none" xmlns="http://www.w3.org/2000/svg">
<mask id="mask0_10468_13" style="mask-type:luminance" maskUnits="userSpaceOnUse" x="0" y="0" width="500" height="500">
<path d="M100 0H400C455.229 0 500 44.7708 500 100V400C500 455.229 455.229 500 400 500H100C44.7708 500 0 455.229 0 400V100C0 44.7708 44.7708 0 100 0Z" fill="white"/>
</mask>
<g mask="url(#mask0_10468_13)">
<path d="M500 0H0V500H500V0Z" fill="#F9EED2"/>
<path d="M100 0H400C455.229 0 500 44.7708 500 100V400C500 455.229 455.229 500 400 500H100C44.7708 500 0 455.229 0 400V100C0 44.7708 44.7708 0 100 0Z" stroke="#A6A09B" stroke-width="30"/>
</g>
<path d="M249.714 408.645C233.615 408.645 220.152 407.108 209.319 404.041C198.485 400.957 190.287 399.416 184.735 399.416C180.053 399.416 176.391 400.223 173.756 401.832C171.115 403.447 168.845 405.051 166.944 406.666C165.037 408.275 162.475 409.082 159.256 409.082C155.449 409.082 152.011 407.468 148.944 404.249C145.871 401.03 143.6 394.739 142.131 385.374C140.089 373.072 138.407 361.577 137.089 350.895C135.766 340.218 134.819 329.895 134.235 319.937C133.944 313.218 134.6 307.952 136.214 304.145C137.824 300.343 140.824 298.437 145.214 298.437C149.6 298.437 153.037 299.973 155.527 303.041C158.011 306.114 161.6 311.306 166.298 318.624C170.683 325.947 176.61 334.145 184.069 343.228C191.537 352.301 201.131 360.056 212.839 366.499C224.548 372.931 238.595 376.145 254.985 376.145C268.746 376.145 278.553 372.562 284.402 365.395C290.261 358.218 293.339 350.384 293.631 341.895C293.631 332.827 290.183 324.707 283.298 317.541C276.423 310.364 267.569 303.624 256.735 297.332C245.902 291.041 234.485 284.822 222.485 278.666C205.803 269.89 191.162 261.624 178.569 253.874C165.985 246.114 156.11 236.89 148.944 226.207C141.777 215.515 138.194 201.681 138.194 184.707C138.194 167.431 143.162 151.916 153.11 138.166C163.069 124.405 176.61 113.499 193.735 105.457C210.86 97.4053 229.954 93.374 251.027 93.374C262.152 93.374 272.246 94.473 281.319 96.6657C290.402 98.8636 297.282 99.9574 301.964 99.9574C307.824 99.9574 311.996 98.8636 314.485 96.6657C316.97 94.473 320.553 93.374 325.235 93.374C329.329 93.374 332.845 94.8428 335.777 97.7699C338.704 100.702 341.194 106.848 343.235 116.207C344.996 124.697 346.61 133.551 348.069 142.77C349.527 151.994 350.402 161.285 350.694 170.645C351.287 177.384 350.558 182.728 348.506 186.687C346.464 190.634 342.949 192.603 337.964 192.603C334.157 192.603 330.72 190.926 327.652 187.562C324.579 184.202 320.553 179.009 315.569 171.978C310.595 164.952 304.74 157.707 298.006 150.249C291.282 142.78 283.6 136.556 274.964 131.582C266.324 126.598 256.735 124.103 246.194 124.103C233.902 124.103 224.464 127.259 217.881 133.562C211.298 139.853 208.006 147.973 208.006 157.916C208.006 170.515 213.636 181.28 224.902 190.207C236.178 199.124 253.673 209.728 277.381 222.02C294.933 230.812 310.516 239.239 324.131 247.291C337.74 255.332 348.423 264.478 356.173 274.728C363.933 284.968 367.819 298.134 367.819 314.228C367.819 329.16 364.595 342.478 358.152 354.187C351.72 365.895 342.865 375.78 331.589 383.832C320.324 391.874 307.595 398.02 293.402 402.27C279.204 406.52 264.641 408.645 249.714 408.645Z" fill="#1D7BA7"/>
</svg>
