<svg xmlns="http://www.w3.org/2000/svg" width="1490" height="245" version="1.0" viewBox="0 0 1117.5 183.75"><defs><clipPath id="a"><path d="M.508 0h1115.984v183.5H.508Zm0 0"/></clipPath></defs><g clip-path="url(#a)"><path fill="none" stroke="#1d7ba7" stroke-width="3.378" d="M55.027 145.172c-6.742 0-12.21-.543-16.402-1.625-4.195-1.086-7.492-1.629-9.898-1.629-1.7 0-3.036.277-4.004.836a24.787 24.787 0 0 0-2.594 1.672c-.762.613-1.746.922-2.945.922-1.704 0-3.125-.688-4.266-2.067-1.145-1.379-2.012-3.988-2.598-7.828a1362.8 1362.8 0 0 1-2.11-12.887 182.263 182.263 0 0 1-1.495-13.414c-.117-2.406.117-4.328.703-5.765.617-1.465 1.758-2.196 3.43-2.196 1.703 0 3.05.57 4.047 1.715 1.027 1.14 2.316 3.094 3.87 5.848 1.817 3.371 4.255 6.98 7.301 10.82 3.079 3.84 6.98 7.125 11.7 9.852 4.75 2.699 10.5 4.047 17.242 4.047 6.715 0 11.566-1.715 14.558-5.145 3.02-3.43 4.59-7.242 4.707-11.437.118-4.223-1.277-7.828-4.18-10.82-2.87-2.989-6.624-5.774-11.257-8.356a384.32 384.32 0 0 0-14.473-7.695c-6.48-3.344-12.433-6.57-17.855-9.68-5.395-3.137-9.723-6.918-12.977-11.348-3.226-4.457-4.836-10.23-4.836-17.328 0-6.598 1.89-12.594 5.672-17.988 3.781-5.426 9.063-9.75 15.836-12.977 6.8-3.254 14.645-4.883 23.531-4.883 4.457 0 8.442.426 11.961 1.278 3.547.82 6.348 1.23 8.403 1.23 2.285 0 3.93-.41 4.925-1.23 1.028-.852 2.45-1.278 4.266-1.278 1.672 0 3.02.633 4.047 1.895 1.027 1.258 1.95 3.809 2.77 7.652.734 3.137 1.421 6.54 2.07 10.203.672 3.637 1.187 7.45 1.539 11.438.262 2.375.058 4.293-.617 5.762-.676 1.433-1.965 2.152-3.871 2.152-1.438 0-2.786-.602-4.047-1.8-1.262-1.204-2.742-3.126-4.442-5.763-1.906-3.023-4.308-6.054-7.215-9.105-2.87-3.078-6.171-5.687-9.894-7.828-3.723-2.172-7.918-3.258-12.578-3.258-5.778 0-10.207 1.453-13.285 4.356-3.047 2.875-4.575 6.582-4.575 11.128 0 3.84 1.118 7.184 3.344 10.028 2.23 2.816 5.496 5.484 9.809 8.004 4.34 2.523 9.633 5.394 15.879 8.62 6.949 3.49 13.265 6.833 18.957 10.028 5.715 3.168 10.32 6.89 13.808 11.172 3.489 4.254 5.235 9.75 5.235 16.496.117 8.035-2.082 14.91-6.598 20.629-4.484 5.688-10.336 10.043-17.547 13.063-7.215 2.988-14.898 4.484-23.05 4.484ZM208.301 60.68l-.176 24.675v31.36c0 3.226.543 5.66 1.625 7.3 1.086 1.614 2.29 2.758 3.61 3.434a65.19 65.19 0 0 1 3.605 1.89c1.086.587 1.629 1.54 1.629 2.86 0 2.403-1.922 4.633-5.762 6.684-1.82.937-4.02 1.89-6.598 2.86a73.752 73.752 0 0 1-7.656 2.417c-2.52.676-4.617 1.012-6.289 1.012-2.52 0-4.351-.805-5.496-2.418-1.145-1.64-1.832-4.324-2.066-8.05l-.223-4.837c-3.723 4.926-8.195 8.707-13.414 11.348-5.219 2.637-10.293 3.957-15.219 3.957-9.734 0-17.242-3.152-22.52-9.457-5.277-6.305-7.913-15.215-7.913-26.742V85.355c0-3.136-.426-5.511-1.278-7.125-.82-1.613-1.805-2.875-2.945-3.78a160.054 160.054 0 0 1-3.082-2.509c-.906-.793-1.363-1.847-1.363-3.168 0-1.203.398-2.183 1.187-2.945.793-.793 2.258-1.672 4.398-2.64 2.524-1.204 5.442-2.403 8.754-3.606 3.313-1.203 6.348-2.215 9.106-3.035 2.754-.852 4.617-1.277 5.586-1.277 2.754 0 4.133 1.804 4.133 5.41l-.176 24.675V107.7c0 6.832 1.07 12.27 3.21 16.317 2.173 4.02 5.97 5.968 11.391 5.851 3.227-.117 6.305-1.23 9.239-3.344 2.96-2.109 5.394-5.085 7.3-8.93 1.934-3.84 2.903-8.28 2.903-13.323V85.355c0-3.136-.426-5.511-1.274-7.125-.824-1.613-1.804-2.875-2.949-3.78a171.88 171.88 0 0 1-3.078-2.509c-.91-.793-1.363-1.847-1.363-3.168 0-1.203.394-2.183 1.187-2.945.793-.793 2.258-1.672 4.399-2.64 2.523-1.204 5.437-2.403 8.754-3.606 3.312-1.203 6.347-2.215 9.101-3.035 2.758-.852 4.621-1.277 5.586-1.277 2.758 0 4.137 1.804 4.137 5.41Zm82.48-5.41c6.864 0 13.047 1.687 18.563 5.058 5.539 3.344 9.926 8.137 13.148 14.383 3.258 6.246 4.883 13.754 4.883 22.52 0 10.585-2.023 19.457-6.07 26.609-4.016 7.125-9.059 12.492-15.13 16.098-6.038 3.609-12.241 5.41-18.605 5.41-4.808 0-9.324-.746-13.547-2.243-4.19-1.496-7.843-3.21-10.953-5.144v16.582c0 4.191.442 7.27 1.32 9.234.91 1.996 1.938 3.446 3.079 4.356a50.856 50.856 0 0 1 3.035 2.594c.91.851 1.363 2.3 1.363 4.355 0 1.79-.719 2.977-2.152 3.563-1.438.617-3.36.921-5.762.921h-25.777c-2.637 0-4.676-.336-6.113-1.011-1.434-.645-2.153-1.801-2.153-3.473 0-2.055.438-3.504 1.317-4.355.91-.82 1.937-1.684 3.082-2.594 1.14-.91 2.168-2.36 3.078-4.356.906-1.964 1.363-5.043 1.363-9.234v-70.64c0-2.52-.484-4.645-1.453-6.376-.965-1.761-2.344-3.242-4.133-4.441a28.551 28.551 0 0 1-2.375-2.2c-.703-.792-1.055-1.788-1.055-2.991 0-1.438.41-2.582 1.23-3.43.852-.852 2.36-1.762 4.532-2.727 2.285-1.058 4.867-2.07 7.738-3.035 2.875-.969 5.543-1.777 8.008-2.422 2.461-.672 4.117-1.011 4.969-1.011 2.875 0 4.309 1.804 4.309 5.41v10.425c2.906-4.195 6.804-7.875 11.699-11.039 4.93-3.199 11.113-4.796 18.562-4.796Zm-4.84 78.906c4.313-.117 7.758-1.496 10.34-4.133 2.578-2.64 4.469-5.996 5.672-10.074a44.63 44.63 0 0 0 1.805-12.621c0-7.215-.942-13.606-2.817-19.176-1.847-5.602-4.398-10.016-7.652-13.242-3.226-3.254-7.05-4.88-11.48-4.88-5.66 0-10.203 2.376-13.633 7.126-3.403 4.719-5.106 10.336-5.106 16.844v.527l.176 11.7c.121 5.894 1.277 10.91 3.477 15.042 2.226 4.137 5.086 7.316 8.578 9.547 3.488 2.227 7.035 3.34 10.64 3.34Zm133.122-18.207c1.789-1.79 3.433-2.14 4.925-1.055 1.496 1.082 1.778 2.945.836 5.586-1.199 3.34-3.633 6.95-7.3 10.816-3.665 3.844-8.446 7.141-14.336 9.899-5.895 2.754-12.86 4.133-20.895 4.133-8.531 0-16.008-1.801-22.43-5.41-6.422-3.606-11.437-8.622-15.043-15.04-3.605-6.421-5.41-13.726-5.41-21.906 0-9.234 2.125-17.46 6.38-24.676 4.28-7.21 9.952-12.855 17.019-16.933 7.097-4.074 14.851-6.113 23.27-6.113 7.21 0 13.398 1.293 18.558 3.87 5.16 2.583 9.238 6.044 12.226 10.383 3.024 4.309 4.957 9.043 5.809 14.204.586 3.14-.809 5.484-4.18 7.039-9.12 4.074-17.68 7.683-25.687 10.82-7.973 3.11-16.64 6.406-25.992 9.894 1.906 4.079 4.953 7.833 9.148 11.262 4.223 3.43 9.824 5.145 16.8 5.145 5.512 0 10.454-1.203 14.825-3.606 4.398-2.406 8.223-5.176 11.477-8.312ZM378.16 67.145c-5.16.617-9.133 3.125-11.922 7.523-2.754 4.367-4.132 9.426-4.132 15.172 0 4.34.484 8.125 1.453 11.351a809.124 809.124 0 0 0 15.57-5.457 309.88 309.88 0 0 0 14.863-5.894c1.586-.703 2.817-1.54 3.696-2.504.91-.969 1.054-2.598.441-4.883-1.176-5.277-3.727-9.355-7.652-12.226-3.903-2.875-8.008-3.903-12.317-3.082ZM491.992 55.27c5.16 0 9.117 1.48 11.875 4.445 2.785 2.93 4.176 6.61 4.176 11.039 0 3.605-.848 6.492-2.55 8.664-1.673 2.168-3.766 3.312-6.29 3.43-2.168 0-3.914-.485-5.234-1.45a18.175 18.175 0 0 1-3.43-3.257 18.494 18.494 0 0 0-3.344-3.211c-1.261-.965-2.96-1.45-5.101-1.45-3.254 0-6.14 1.805-8.664 5.41-2.524 3.579-3.782 8.68-3.782 15.305v24.325c0 4.191.454 7.285 1.364 9.28.906 1.966 1.918 3.4 3.035 4.31 1.14.91 2.14 1.788 2.988 2.64.852.82 1.278 2.258 1.278 4.309 0 1.789-.692 2.992-2.067 3.605-1.379.59-3.328.883-5.851.883H444.62c-2.523 0-4.547-.324-6.07-.969-1.496-.676-2.242-1.906-2.242-3.695 0-1.934.453-3.313 1.363-4.133a39.6 39.6 0 0 1 3.164-2.64c1.203-.91 2.246-2.344 3.125-4.31.91-1.995 1.363-5.089 1.363-9.28V84.258c0-2.524-.484-4.649-1.453-6.38-.937-1.73-2.316-3.253-4.133-4.573a19.623 19.623 0 0 1-2.332-2.067c-.73-.793-1.097-1.789-1.097-2.992 0-1.437.425-2.582 1.273-3.43.852-.851 2.348-1.746 4.488-2.683 2.286-1.086 4.836-2.14 7.653-3.168 2.843-1.027 5.496-1.86 7.96-2.508 2.465-.672 4.165-1.012 5.102-1.012 2.903 0 4.356 1.805 4.356 5.41V71.5c3.343-5.543 7.242-9.633 11.699-12.27 4.457-2.64 8.84-3.96 13.152-3.96Zm154.39 1.628h12.759c2.52 0 4.5.336 5.937 1.012 1.465.645 2.2 1.863 2.2 3.649 0 1.703-.399 2.976-1.188 3.828-.762.82-1.82 1.687-3.168 2.593-1.32.883-2.785 2.258-4.398 4.137-1.614 1.848-3.196 4.574-4.75 8.18l-24.895 57.84c-.469 1.199-1.246 2.285-2.332 3.254-1.082.968-3.371 1.746-6.86 2.332-3.109.468-5.351.527-6.73.175-1.379-.351-2.375-1.304-2.992-2.859l-19.262-51.902-18.387 49c-.968 2.52-3.84 4.383-8.62 5.586-3.372.847-5.805.996-7.301.437-1.496-.527-2.551-1.566-3.168-3.12l-24.32-60.567c-1.438-3.723-2.95-6.508-4.532-8.356-1.555-1.879-2.96-3.254-4.223-4.137-1.261-.906-2.316-1.8-3.168-2.68-.82-.91-1.23-2.214-1.23-3.917 0-1.785.719-2.973 2.156-3.563 1.438-.613 3.356-.922 5.762-.922h27.578c2.52 0 4.527.336 6.024 1.012 1.496.645 2.242 1.863 2.242 3.649 0 1.703-.48 2.976-1.45 3.828-.937.82-1.921 1.687-2.949 2.593-1.023.883-1.656 2.258-1.89 4.137-.235 1.848.367 4.633 1.804 8.356l14.25 35.32 20.145-53.66c.5-1.203 1.16-2.258 1.98-3.168.848-.91 2.418-1.598 4.707-2.067 3.106-.734 5.32-.82 6.641-.265 1.32.531 2.227 1.57 2.727 3.125l21.418 56.21 15.308-35.671c1.582-3.606 2.27-6.332 2.067-8.18-.176-1.879-.72-3.254-1.63-4.137-.878-.906-1.773-1.8-2.683-2.68-.879-.91-1.316-2.214-1.316-3.917 0-1.785.687-2.973 2.066-3.563 1.379-.613 3.27-.922 5.672-.922Zm44.438-11.523c-3.343-.117-6.011-1.23-8.004-3.344-1.964-2.11-2.89-4.66-2.773-7.652.117-2.758 1.102-5.484 2.95-8.18a21.9 21.9 0 0 1 7.124-6.597c2.871-1.672 5.82-2.45 8.84-2.332 3.227.117 5.922 1.261 8.094 3.43 2.168 2.14 3.254 4.78 3.254 7.917-.117 2.875-1.145 5.602-3.078 8.18-1.907 2.582-4.34 4.664-7.301 6.246-2.934 1.555-5.969 2.332-9.106 2.332Zm-6.113 73.145V85.53c0-3.11-.426-5.468-1.277-7.082-.82-1.64-1.801-2.902-2.946-3.781a86.002 86.002 0 0 1-3.078-2.55c-.879-.794-1.32-1.848-1.32-3.169 0-1.32.383-2.36 1.145-3.12.789-.794 2.27-1.673 4.441-2.641 2.52-1.204 5.426-2.375 8.707-3.52a229.254 229.254 0 0 1 9.105-2.945c2.758-.852 4.618-1.278 5.586-1.278 2.758-.117 4.137 1.688 4.137 5.41l-.18 24.676v32.989c0 4.191.457 7.285 1.368 9.28.906 1.966 1.918 3.4 3.03 4.31a50.78 50.78 0 0 1 3.083 2.64c.906.82 1.363 2.258 1.363 4.309 0 1.789-.719 2.992-2.156 3.605-1.438.59-3.36.883-5.762.883H684.18c-2.64 0-4.692-.324-6.16-.969-1.434-.676-2.153-1.906-2.153-3.695 0-1.934.453-3.313 1.364-4.133a49.478 49.478 0 0 1 3.078-2.64c1.144-.91 2.156-2.344 3.035-4.31.906-1.995 1.363-5.089 1.363-9.28Zm125.738-5.586c1.32.468 1.977 1.363 1.977 2.683 0 1.317-.117 2.887-.352 4.703-.351 2.758-.836 5.309-1.449 7.657a133.876 133.876 0 0 1-1.98 7.078c-.82 2.672-1.934 4.754-3.344 6.246-1.375 1.496-3.445 2.246-6.2 2.246h-65.933c-2.52 0-4.207-.719-5.055-2.156-.824-1.438-.457-3.184 1.098-5.235l49.879-67.91h-14.031c-6.012 0-11.305 1.48-15.88 4.442-4.546 2.933-8.386 6.128-11.523 9.59-1.203 1.202-2.406 2.109-3.605 2.726-1.176.586-2.434.644-3.785.176-1.203-.617-1.86-1.614-1.977-2.992-.117-1.375.012-2.903.395-4.575a68.276 68.276 0 0 1 2.418-6.64c.91-2.168 1.832-4.399 2.773-6.684 1.082-2.64 2.317-4.504 3.692-5.586 1.378-1.086 3.46-1.629 6.246-1.629h63.027c2.523 0 4.211.719 5.059 2.156.851 1.438.484 3.18-1.098 5.235l-49.879 67.91h16.934c6.011 0 11.054-1.527 15.132-4.574 4.075-3.082 7.551-6.656 10.422-10.735.97-1.437 2.055-2.578 3.254-3.43 1.203-.85 2.465-1.085 3.785-.702ZM917.45 129.69c2.285 0 3.43 1.012 3.43 3.036 0 2.05-.969 4.015-2.902 5.894-1.907 1.844-4.282 3.371-7.125 4.574-2.817 1.2-5.66 1.801-8.535 1.801-7.567 0-12.668-4.441-15.305-13.328-4.223 4.664-9.192 8.082-14.91 10.25-5.692 2.168-11.23 3.254-16.625 3.254-6.598 0-12.391-1.172-17.375-3.52-4.985-2.343-8.84-5.527-11.567-9.543-2.699-4.015-4.047-8.488-4.047-13.414 0-8.652 3.606-15.761 10.82-21.332 7.212-5.601 17.18-8.402 29.907-8.402 2.406 0 4.648.117 6.73.352 2.11.234 4.676.601 7.696 1.101-1.082-3.84-2.344-7.285-3.782-10.336-1.437-3.078-3.414-5.512-5.937-7.3-2.52-1.821-6.07-2.727-10.645-2.727-4.074 0-7.945.719-11.609 2.152a84.888 84.888 0 0 0-10.383 4.883c-1.672 1.055-3.164 1.055-4.484 0-1.32-1.086-1.32-2.77 0-5.059 1.555-2.52 4-5.07 7.344-7.652 3.37-2.578 7.464-4.734 12.273-6.465 4.809-1.758 10.102-2.64 15.875-2.64 7.684 0 13.738 1.539 18.168 4.62 4.457 3.048 7.856 6.919 10.203 11.61a73.925 73.925 0 0 1 5.496 14.559l8.797 33.867c.969 3.722 2.14 6.32 3.52 7.785 1.379 1.437 3.035 2.098 4.972 1.98Zm-52.254 2.86a23.14 23.14 0 0 0 9.633-2.07c3.078-1.376 5.485-3.18 7.211-5.407 1.762-2.23 2.39-4.547 1.895-6.949-.235-1.555-.72-3.46-1.453-5.719-.704-2.289-1.48-5-2.332-8.136-.586-2.055-2.36-3.551-5.32-4.489-2.934-.968-5.837-1.449-8.712-1.449-6.36 0-11.347 1.508-14.953 4.527-3.605 2.993-5.41 6.95-5.41 11.88.117 5.16 1.906 9.425 5.367 12.796 3.488 3.344 8.18 5.016 14.074 5.016Zm118.527-77.28c5.16 0 9.12 1.48 11.875 4.445 2.789 2.93 4.18 6.61 4.18 11.039 0 3.605-.852 6.492-2.551 8.664-1.672 2.168-3.77 3.312-6.29 3.43-2.171 0-3.913-.485-5.234-1.45a18.057 18.057 0 0 1-3.43-3.257 18.494 18.494 0 0 0-3.343-3.211c-1.262-.965-2.961-1.45-5.102-1.45-3.254 0-6.144 1.805-8.664 5.41-2.523 3.579-3.785 8.68-3.785 15.305v24.325c0 4.191.457 7.285 1.363 9.28.91 1.966 1.922 3.4 3.035 4.31a35.264 35.264 0 0 1 2.993 2.64c.851.82 1.277 2.258 1.277 4.309 0 1.789-.691 2.992-2.07 3.605-1.375.59-3.328.883-5.848.883h-25.773c-2.524 0-4.547-.324-6.07-.969-1.497-.676-2.247-1.906-2.247-3.695 0-1.934.457-3.313 1.367-4.133a38.945 38.945 0 0 1 3.164-2.64c1.204-.91 2.243-2.344 3.125-4.31.907-1.995 1.364-5.089 1.364-9.28V84.258c0-2.524-.485-4.649-1.453-6.38-.938-1.73-2.317-3.253-4.133-4.573a19.623 19.623 0 0 1-2.332-2.067c-.735-.793-1.102-1.789-1.102-2.992 0-1.437.426-2.582 1.278-3.43.851-.851 2.347-1.746 4.488-2.683 2.285-1.086 4.836-2.14 7.652-3.168 2.844-1.027 5.496-1.86 7.961-2.508 2.461-.672 4.164-1.012 5.102-1.012 2.902 0 4.355 1.805 4.355 5.41V71.5c3.34-5.543 7.242-9.633 11.7-12.27 4.456-2.64 8.84-3.96 13.148-3.96Zm117.097-34.22-.175 24.677-.395 70.636c0 3.344.54 5.805 1.625 7.39 1.086 1.556 2.317 2.696 3.695 3.43a93.273 93.273 0 0 1 3.696 1.981c1.086.586 1.625 1.54 1.625 2.86 0 2.167-1.977 4.382-5.938 6.64-1.672.848-3.797 1.79-6.375 2.813a59.888 59.888 0 0 1-7.785 2.507c-2.582.676-4.707 1.012-6.379 1.012-2.523 0-4.355-.836-5.496-2.508-1.144-1.699-1.836-4.41-2.07-8.136l-.176-3.606c-2.871 4.074-6.684 7.567-11.434 10.469-4.75 2.871-10.675 4.191-17.77 3.957-6.948-.117-13.167-1.89-18.648-5.32-5.453-3.43-9.722-8.137-12.8-14.122-3.051-6.007-4.575-12.855-4.575-20.539 0-7.828 1.348-14.793 4.047-20.89 2.7-6.13 6.305-11.348 10.82-15.66 4.516-4.34 9.442-7.653 14.778-9.938 5.336-2.289 10.644-3.433 15.922-3.433 3.726 0 7.215.425 10.469 1.277 3.253.82 6.144 1.95 8.664 3.387V45.902c0-3.136-.426-5.543-1.274-7.214-.851-1.668-1.847-2.961-2.992-3.868a68.024 68.024 0 0 1-2.992-2.507c-.82-.793-1.23-1.848-1.23-3.168 0-1.204.382-2.184 1.144-2.946.793-.793 2.273-1.672 4.441-2.64 2.524-1.204 5.426-2.403 8.711-3.606 3.313-1.203 6.348-2.215 9.102-3.035 2.785-.852 4.664-1.277 5.629-1.277 2.758 0 4.136 1.804 4.136 5.41Zm-42.707 108.641c5.395 0 9.618-1.949 12.668-5.851 3.078-3.93 4.868-8.649 5.364-14.16V98.86a75.244 75.244 0 0 0-1.098-10.778c-.586-3.488-1.54-6.496-2.86-9.016-3.722-8.296-9.734-12.449-18.035-12.449-6.128 0-10.906 2.492-14.335 7.48-3.403 4.985-5.102 11.684-5.102 20.098 0 7.332 1.07 13.664 3.21 19 2.169 5.34 5.056 9.43 8.665 12.274 3.605 2.812 7.445 4.222 11.523 4.222Zm0 0"/></g><path fill="#1d7ba7" d="M55.018 145.17c-6.73 0-12.2-.543-16.406-1.625-4.2-1.082-7.5-1.625-9.907-1.625-1.68 0-3 .274-3.968.813a23.182 23.182 0 0 0-2.61 1.703c-.773.602-1.761.906-2.968.906-1.68 0-3.09-.687-4.235-2.062-1.137-1.383-2.008-4-2.61-7.844a1286.32 1286.32 0 0 1-2.077-12.875 174.35 174.35 0 0 1-1.516-13.422c-.125-2.406.11-4.328.703-5.765.602-1.446 1.75-2.172 3.438-2.172 1.675 0 3.023.574 4.047 1.718 1.02 1.149 2.312 3.102 3.875 5.86 1.8 3.367 4.234 6.969 7.296 10.812 3.063 3.836 6.961 7.106 11.704 9.813 4.75 2.699 10.488 4.047 17.218 4.047 6.72 0 11.578-1.707 14.578-5.125 3.008-3.426 4.57-7.239 4.688-11.438.125-4.207-1.258-7.812-4.14-10.812-2.887-3-6.641-5.79-11.266-8.375a352.426 352.426 0 0 0-14.5-7.657c-6.48-3.363-12.422-6.609-17.828-9.734-5.407-3.125-9.735-6.906-12.985-11.344-3.242-4.445-4.86-10.21-4.86-17.297 0-6.601 1.891-12.609 5.673-18.015 3.789-5.406 9.078-9.727 15.86-12.969 6.788-3.25 14.628-4.875 23.515-4.875 4.437 0 8.425.422 11.968 1.266 3.551.843 6.348 1.265 8.391 1.265 2.281 0 3.93-.422 4.953-1.265 1.02-.844 2.43-1.266 4.235-1.266 1.675 0 3.023.633 4.046 1.89 1.02 1.262 1.954 3.813 2.797 7.657a213.815 213.815 0 0 1 2.063 10.187c.664 3.657 1.18 7.47 1.547 11.438.238 2.406.023 4.328-.64 5.766-.657 1.437-1.95 2.156-3.876 2.156-1.437 0-2.789-.598-4.047-1.797-1.262-1.195-2.734-3.117-4.422-5.766-1.918-3-4.32-6.031-7.203-9.093a43.54 43.54 0 0 0-9.906-7.829c-3.719-2.164-7.922-3.25-12.61-3.25-5.773 0-10.187 1.446-13.25 4.329-3.062 2.875-4.593 6.593-4.593 11.156 0 3.844 1.11 7.18 3.328 10 2.227 2.824 5.504 5.496 9.828 8.015 4.32 2.524 9.61 5.407 15.86 8.657 6.968 3.48 13.3 6.812 19 10 5.706 3.18 10.3 6.902 13.78 11.172 3.489 4.261 5.235 9.75 5.235 16.468.113 8.055-2.086 14.934-6.594 20.64-4.5 5.7-10.355 10.056-17.562 13.063-7.2 3-14.883 4.5-23.047 4.5Zm153.292-84.5-.188 24.688v31.344c0 3.242.54 5.672 1.625 7.297 1.082 1.625 2.281 2.765 3.594 3.421 1.32.657 2.523 1.29 3.61 1.891 1.081.606 1.624 1.57 1.624 2.89 0 2.4-1.922 4.618-5.765 6.657-1.805.96-3.997 1.922-6.579 2.89a79.505 79.505 0 0 1-7.656 2.422c-2.523.664-4.621 1-6.297 1-2.531 0-4.37-.812-5.515-2.437-1.137-1.625-1.825-4.297-2.063-8.016l-.172-4.86c-3.73 4.919-8.21 8.7-13.437 11.345-5.219 2.644-10.29 3.968-15.203 3.968-9.73 0-17.243-3.148-22.532-9.453-5.28-6.312-7.921-15.234-7.921-26.765V85.358c0-3.125-.422-5.492-1.266-7.11-.836-1.624-1.824-2.882-2.969-3.78a80.24 80.24 0 0 1-3.062-2.532c-.899-.781-1.344-1.832-1.344-3.156 0-1.196.383-2.188 1.156-2.969.781-.781 2.254-1.648 4.422-2.61 2.52-1.206 5.43-2.41 8.734-3.609 3.301-1.195 6.332-2.218 9.094-3.062 2.77-.844 4.633-1.266 5.594-1.266 2.758 0 4.14 1.805 4.14 5.406l-.171 24.688v22.344c0 6.843 1.078 12.277 3.234 16.297 2.164 4.023 5.945 5.976 11.344 5.859 3.25-.125 6.344-1.234 9.281-3.328 2.945-2.102 5.379-5.078 7.297-8.922 1.926-3.844 2.89-8.29 2.89-13.344V85.358c0-3.125-.421-5.492-1.265-7.11-.844-1.624-1.84-2.882-2.984-3.78a104.006 104.006 0 0 1-3.063-2.532c-.898-.781-1.344-1.832-1.344-3.156 0-1.196.39-2.188 1.172-2.969.781-.781 2.254-1.648 4.422-2.61 2.52-1.206 5.43-2.41 8.734-3.609 3.301-1.195 6.332-2.218 9.094-3.062 2.758-.844 4.625-1.266 5.594-1.266 2.758 0 4.14 1.805 4.14 5.406Zm82.486-5.406c6.843 0 13.023 1.684 18.546 5.047 5.532 3.367 9.914 8.172 13.157 14.422 3.25 6.242 4.875 13.746 4.875 22.516 0 10.562-2.016 19.421-6.047 26.578-4.024 7.148-9.063 12.523-15.125 16.125-6.063 3.593-12.281 5.39-18.656 5.39-4.805 0-9.31-.75-13.516-2.25-4.2-1.5-7.86-3.207-10.984-5.125v16.563c0 4.207.445 7.3 1.343 9.281.907 1.977 1.926 3.414 3.063 4.313a48.055 48.055 0 0 1 3.062 2.625c.907.843 1.36 2.285 1.36 4.328 0 1.8-.72 3-2.157 3.593-1.437.602-3.359.907-5.765.907h-25.766c-2.637 0-4.68-.336-6.125-1-1.437-.657-2.156-1.825-2.156-3.5 0-2.043.445-3.485 1.344-4.328a52.826 52.826 0 0 1 3.062-2.625c1.145-.899 2.164-2.336 3.063-4.313.906-1.98 1.359-5.074 1.359-9.281V83.92c0-2.53-.484-4.664-1.453-6.406-.961-1.738-2.34-3.207-4.14-4.406a29.14 29.14 0 0 1-2.344-2.25c-.72-.781-1.079-1.774-1.079-2.984 0-1.438.422-2.57 1.266-3.407.844-.843 2.344-1.75 4.5-2.718 2.281-1.07 4.863-2.086 7.75-3.047a132.53 132.53 0 0 1 8.016-2.438c2.468-.664 4.117-1 4.953-1 2.883 0 4.328 1.805 4.328 5.406v10.454c2.883-4.207 6.785-7.899 11.703-11.079 4.926-3.187 11.113-4.78 18.563-4.78Zm-4.86 78.906c4.32-.113 7.774-1.488 10.36-4.125 2.582-2.644 4.472-6.007 5.671-10.093a44.69 44.69 0 0 0 1.797-12.625c0-7.196-.933-13.586-2.797-19.172-1.855-5.594-4.406-10.008-7.656-13.25-3.242-3.238-7.078-4.86-11.515-4.86-5.649 0-10.184 2.375-13.61 7.125-3.43 4.743-5.14 10.352-5.14 16.829v.546l.187 11.704c.113 5.886 1.281 10.902 3.5 15.046 2.227 4.149 5.082 7.329 8.563 9.547 3.488 2.219 7.035 3.328 10.64 3.328Zm133.114-18.187c1.801-1.8 3.454-2.16 4.954-1.078 1.5 1.086 1.77 2.945.812 5.578-1.21 3.367-3.648 6.969-7.312 10.812-3.657 3.844-8.43 7.149-14.313 9.907-5.886 2.757-12.851 4.14-20.89 4.14-8.532 0-16.012-1.797-22.438-5.39-6.43-3.602-11.445-8.618-15.047-15.047-3.605-6.426-5.406-13.723-5.406-21.89 0-9.25 2.129-17.477 6.39-24.688 4.27-7.207 9.946-12.852 17.032-16.938 7.094-4.082 14.844-6.125 23.25-6.125 7.207 0 13.39 1.293 18.547 3.875 5.164 2.586 9.25 6.04 12.25 10.36 3.008 4.324 4.93 9.07 5.765 14.234.602 3.125-.777 5.469-4.14 7.031-9.125 4.086-17.684 7.688-25.672 10.813a1833.564 1833.564 0 0 1-26.031 9.906c1.925 4.086 4.988 7.84 9.187 11.266 4.207 3.418 9.79 5.125 16.75 5.125 5.531 0 10.484-1.196 14.86-3.594 4.382-2.406 8.203-5.172 11.453-8.297Zm-40.906-48.828c-5.156.605-9.12 3.101-11.89 7.484-2.762 4.387-4.14 9.461-4.14 15.219 0 4.324.483 8.105 1.452 11.344a688.44 688.44 0 0 0 15.578-5.485 308.081 308.081 0 0 0 14.86-5.86c1.562-.718 2.789-1.554 3.687-2.515.906-.968 1.055-2.593.453-4.875-1.199-5.281-3.75-9.36-7.656-12.234-3.898-2.883-8.012-3.91-12.344-3.078Zm113.843-11.891c5.164 0 9.129 1.477 11.89 4.422 2.758 2.938 4.141 6.633 4.141 11.078 0 3.606-.84 6.492-2.516 8.656-1.68 2.157-3.777 3.293-6.297 3.407-2.168 0-3.914-.477-5.234-1.438a17.333 17.333 0 0 1-3.422-3.234 18.88 18.88 0 0 0-3.328-3.25c-1.262-.957-2.976-1.438-5.14-1.438-3.243 0-6.122 1.805-8.641 5.407-2.524 3.605-3.781 8.71-3.781 15.312v24.313c0 4.21.445 7.304 1.343 9.28.907 1.981 1.926 3.423 3.063 4.329 1.144.898 2.133 1.766 2.969 2.61.843.843 1.265 2.288 1.265 4.327 0 1.805-.695 3.008-2.078 3.61-1.375.594-3.324.89-5.844.89h-25.765c-2.524 0-4.532-.328-6.032-.984-1.5-.664-2.25-1.898-2.25-3.703 0-1.914.446-3.297 1.344-4.14a36.347 36.347 0 0 1 3.14-2.61c1.208-.906 2.259-2.348 3.157-4.328.906-1.977 1.36-5.07 1.36-9.281v-34.22c0-2.519-.481-4.648-1.438-6.39-.961-1.75-2.34-3.285-4.14-4.61a14.589 14.589 0 0 1-2.344-2.062c-.72-.781-1.079-1.773-1.079-2.984 0-1.438.415-2.57 1.25-3.406.844-.844 2.348-1.75 4.516-2.72 2.281-1.07 4.828-2.116 7.64-3.14 2.821-1.02 5.462-1.86 7.923-2.515 2.468-.664 4.18-1 5.14-1 2.883 0 4.328 1.804 4.328 5.406v10.625c3.364-5.52 7.266-9.602 11.703-12.25 4.446-2.645 8.832-3.969 13.157-3.969Zm154.381 1.626h12.797c2.52 0 4.5.335 5.938 1 1.445.655 2.172 1.886 2.172 3.687 0 1.68-.39 2.937-1.172 3.78-.781.845-1.836 1.72-3.156 2.626-1.325.898-2.797 2.277-4.422 4.14-1.617 1.856-3.203 4.586-4.766 8.188l-24.86 57.828c-.48 1.2-1.261 2.281-2.343 3.25-1.086.961-3.367 1.742-6.844 2.344-3.125.476-5.383.535-6.765.172-1.375-.363-2.368-1.32-2.97-2.875l-19.28-51.89-18.375 49c-.961 2.523-3.84 4.386-8.641 5.593-3.367.832-5.797.976-7.297.437-1.5-.543-2.555-1.586-3.156-3.14l-24.313-60.531c-1.449-3.727-2.953-6.52-4.515-8.375-1.563-1.864-2.977-3.243-4.235-4.141-1.261-.906-2.312-1.805-3.156-2.703-.836-.906-1.25-2.203-1.25-3.89 0-1.802.719-3 2.156-3.595 1.446-.601 3.368-.906 5.766-.906h27.562c2.52 0 4.532.336 6.032 1 1.508.656 2.265 1.887 2.265 3.688 0 1.68-.484 2.937-1.453 3.78-.96.845-1.949 1.72-2.969 2.626-1.023.898-1.652 2.277-1.89 4.14-.242 1.856.36 4.649 1.797 8.376l14.234 35.296 20.188-53.687a9.995 9.995 0 0 1 1.968-3.14c.844-.907 2.407-1.598 4.688-2.079 3.125-.719 5.348-.805 6.672-.265 1.32.543 2.222 1.593 2.703 3.156l21.437 56.203 15.313-35.672c1.562-3.602 2.25-6.332 2.062-8.187-.18-1.864-.718-3.243-1.625-4.141a440.87 440.87 0 0 0-2.703-2.703c-.898-.906-1.344-2.203-1.344-3.89 0-1.802.688-3 2.063-3.595 1.383-.601 3.281-.906 5.687-.906Zm44.47-11.532c-3.367-.113-6.04-1.223-8.016-3.328-1.98-2.102-2.914-4.656-2.797-7.656.125-2.758 1.113-5.489 2.969-8.188 1.863-2.707 4.238-4.898 7.125-6.578 2.883-1.688 5.828-2.473 8.828-2.36 3.238.126 5.938 1.274 8.094 3.438 2.164 2.156 3.25 4.797 3.25 7.922-.117 2.887-1.137 5.621-3.063 8.203-1.918 2.574-4.351 4.64-7.297 6.203-2.937 1.563-5.968 2.344-9.093 2.344Zm-6.125 73.14V85.53c0-3.113-.422-5.485-1.266-7.11-.836-1.625-1.824-2.882-2.969-3.78a104.006 104.006 0 0 1-3.062-2.532c-.899-.781-1.344-1.828-1.344-3.14 0-1.321.383-2.376 1.156-3.157.782-.781 2.254-1.648 4.422-2.61 2.52-1.206 5.43-2.378 8.735-3.515a241.44 241.44 0 0 1 9.093-2.969c2.77-.843 4.633-1.265 5.594-1.265 2.758-.125 4.14 1.68 4.14 5.406l-.171 24.672v32.969c0 4.21.445 7.304 1.344 9.28.906 1.981 1.925 3.423 3.062 4.329a45.68 45.68 0 0 1 3.063 2.61c.906.843 1.359 2.288 1.359 4.327 0 1.805-.727 3.008-2.172 3.61-1.437.594-3.36.89-5.766.89h-25.765c-2.637 0-4.68-.328-6.125-.984-1.438-.664-2.156-1.898-2.156-3.703 0-1.914.445-3.297 1.343-4.14a49.978 49.978 0 0 1 3.063-2.61c1.144-.906 2.164-2.348 3.062-4.328.907-1.977 1.36-5.07 1.36-9.281Zm125.74-5.578c1.32.48 1.985 1.383 1.985 2.704 0 1.324-.121 2.886-.36 4.687-.367 2.762-.851 5.313-1.453 7.656a178.363 178.363 0 0 1-1.968 7.11c-.844 2.648-1.961 4.718-3.344 6.218-1.375 1.5-3.446 2.25-6.203 2.25h-65.938c-2.531 0-4.219-.718-5.062-2.156-.836-1.445-.47-3.191 1.093-5.234l49.907-67.922h-14.063c-6 0-11.281 1.476-15.844 4.422-4.562 2.937-8.406 6.152-11.53 9.64-1.2 1.2-2.403 2.102-3.61 2.704-1.2.593-2.461.652-3.781.171-1.2-.593-1.86-1.582-1.985-2.968-.117-1.383.004-2.914.36-4.594a79.072 79.072 0 0 1 2.421-6.656c.907-2.164 1.844-4.391 2.813-6.672 1.07-2.645 2.3-4.504 3.687-5.578 1.383-1.082 3.457-1.625 6.22-1.625h63.046c2.52 0 4.203.718 5.047 2.156.844 1.437.484 3.18-1.078 5.219l-49.906 67.922h16.937c6 0 11.04-1.532 15.125-4.594 4.094-3.063 7.578-6.633 10.453-10.719.957-1.437 2.035-2.578 3.235-3.422 1.207-.844 2.472-1.082 3.796-.719Zm107.001 16.75c2.281 0 3.422 1.024 3.422 3.063 0 2.043-.965 3.996-2.89 5.86-1.919 1.866-4.29 3.398-7.11 4.593-2.824 1.195-5.68 1.797-8.562 1.797-7.563 0-12.668-4.441-15.313-13.328-4.21 4.687-9.168 8.117-14.875 10.281-5.7 2.156-11.25 3.234-16.656 3.234-6.606 0-12.403-1.171-17.39-3.515-4.981-2.344-8.825-5.524-11.532-9.547-2.7-4.02-4.047-8.492-4.047-13.422 0-8.644 3.602-15.758 10.813-21.344 7.207-5.593 17.175-8.39 29.906-8.39 2.406 0 4.656.125 6.75.375 2.101.242 4.656.601 7.656 1.078-1.074-3.844-2.336-7.297-3.781-10.36-1.438-3.062-3.418-5.492-5.938-7.296-2.523-1.801-6.062-2.704-10.625-2.704-4.086 0-7.96.72-11.625 2.157a85.421 85.421 0 0 0-10.36 4.859c-1.687 1.086-3.194 1.09-4.515.016-1.312-1.082-1.308-2.766.016-5.047 1.562-2.531 4.02-5.082 7.375-7.656 3.363-2.582 7.445-4.743 12.25-6.485 4.812-1.75 10.098-2.625 15.86-2.625 7.687 0 13.75 1.531 18.187 4.594 4.445 3.062 7.844 6.937 10.187 11.625a75.41 75.41 0 0 1 5.5 14.594l8.828 33.875c.957 3.718 2.125 6.304 3.5 7.75 1.383 1.437 3.04 2.093 4.97 1.968Zm-52.25 2.891c3.363 0 6.578-.691 9.64-2.078 3.063-1.383 5.462-3.188 7.204-5.406 1.738-2.22 2.367-4.532 1.89-6.938-.242-1.562-.718-3.484-1.437-5.765a206.86 206.86 0 0 1-2.344-8.11c-.605-2.039-2.383-3.539-5.328-4.5-2.937-.957-5.844-1.437-8.719-1.437-6.375 0-11.367 1.5-14.968 4.5-3.594 3-5.391 6.965-5.391 11.89.113 5.168 1.91 9.434 5.39 12.797 3.489 3.367 8.176 5.047 14.063 5.047ZM983.72 55.264c5.164 0 9.129 1.477 11.89 4.422 2.759 2.938 4.141 6.633 4.141 11.078 0 3.606-.84 6.492-2.515 8.656-1.68 2.157-3.778 3.293-6.297 3.407-2.168 0-3.914-.477-5.234-1.438a17.333 17.333 0 0 1-3.422-3.234 18.88 18.88 0 0 0-3.328-3.25c-1.262-.957-2.977-1.438-5.141-1.438-3.242 0-6.121 1.805-8.64 5.407-2.524 3.605-3.782 8.71-3.782 15.312v24.313c0 4.21.445 7.304 1.344 9.28.906 1.981 1.926 3.423 3.062 4.329a31.816 31.816 0 0 1 2.969 2.61c.844.843 1.266 2.288 1.266 4.327 0 1.805-.696 3.008-2.078 3.61-1.375.594-3.325.89-5.844.89h-25.766c-2.523 0-4.531-.328-6.031-.984-1.5-.664-2.25-1.898-2.25-3.703 0-1.914.445-3.297 1.344-4.14a36.347 36.347 0 0 1 3.14-2.61c1.207-.906 2.258-2.348 3.157-4.328.906-1.977 1.359-5.07 1.359-9.281v-34.22c0-2.519-.48-4.648-1.438-6.39-.96-1.75-2.34-3.285-4.14-4.61a14.589 14.589 0 0 1-2.344-2.062c-.719-.781-1.078-1.773-1.078-2.984 0-1.438.414-2.57 1.25-3.406.844-.844 2.348-1.75 4.516-2.72 2.28-1.07 4.828-2.116 7.64-3.14 2.82-1.02 5.461-1.86 7.922-2.515 2.469-.664 4.18-1 5.14-1 2.883 0 4.329 1.804 4.329 5.406v10.625c3.363-5.52 7.265-9.602 11.703-12.25 4.445-2.645 8.832-3.969 13.156-3.969Zm117.085-34.219-.172 24.672-.36 70.625c0 3.367.536 5.828 1.61 7.39 1.082 1.563 2.317 2.704 3.703 3.423 1.383.719 2.614 1.383 3.688 1.984 1.082.594 1.625 1.555 1.625 2.875 0 2.168-1.98 4.39-5.938 6.672-1.687.836-3.824 1.762-6.406 2.781a63.643 63.643 0 0 1-7.75 2.516c-2.574.664-4.703 1-6.39 1-2.524 0-4.356-.84-5.5-2.516-1.137-1.687-1.825-4.39-2.063-8.11l-.188-3.608c-2.875 4.085-6.687 7.57-11.437 10.453-4.742 2.882-10.656 4.207-17.75 3.968-6.961-.125-13.172-1.894-18.64-5.312-5.462-3.426-9.727-8.14-12.798-14.14-3.062-6.009-4.593-12.86-4.593-20.548 0-7.8 1.347-14.765 4.047-20.89 2.707-6.125 6.312-11.348 10.812-15.672 4.508-4.332 9.438-7.64 14.781-9.922 5.344-2.281 10.66-3.422 15.953-3.422 3.72 0 7.196.422 10.438 1.266 3.25.844 6.133 1.984 8.656 3.422V45.905c0-3.125-.422-5.524-1.265-7.203-.844-1.688-1.84-2.977-2.985-3.875a53.262 53.262 0 0 1-2.969-2.532c-.836-.78-1.25-1.832-1.25-3.156 0-1.195.391-2.187 1.172-2.969.782-.78 2.25-1.648 4.407-2.609 2.52-1.195 5.43-2.394 8.734-3.594a174.29 174.29 0 0 1 9.11-3.062c2.757-.844 4.616-1.266 5.577-1.266 2.758 0 4.141 1.805 4.141 5.406Zm-42.687 108.625c5.406 0 9.64-1.945 12.703-5.843 3.062-3.907 4.832-8.625 5.312-14.157V98.874a78.989 78.989 0 0 0-1.094-10.813c-.593-3.488-1.554-6.492-2.875-9.016-3.718-8.28-9.726-12.421-18.015-12.421-6.125 0-10.903 2.496-14.328 7.484-3.418 4.98-5.125 11.672-5.125 20.078 0 7.324 1.078 13.656 3.234 19 2.164 5.344 5.05 9.43 8.656 12.25 3.602 2.824 7.446 4.234 11.532 4.234Zm0 0"/></svg>